<svg width="26" height="26" viewBox="0 0 26 26" fill="none" xmlns="http://www.w3.org/2000/svg">
<path d="M12.4801 0.969953C12.795 0.760016 13.2052 0.760016 13.5201 0.969953L24.7701 8.46995C25.2009 8.75716 25.3174 9.33922 25.0301 9.77003C24.7429 10.2008 24.1609 10.3173 23.7301 10.03L13.0001 2.87673L2.27013 10.03C1.83932 10.3173 1.25726 10.2008 0.970052 9.77003C0.682847 9.33922 0.79926 8.75716 1.23007 8.46995L12.4801 0.969953Z" fill="#CAFF33"/>
<path fill-rule="evenodd" clip-rule="evenodd" d="M23.3125 10.9156V23.3125H24.25C24.7678 23.3125 25.1875 23.7322 25.1875 24.25C25.1875 24.7678 24.7678 25.1875 24.25 25.1875H1.75C1.23223 25.1875 0.8125 24.7678 0.8125 24.25C0.8125 23.7322 1.23223 23.3125 1.75 23.3125H2.6875V10.9156C2.6875 10.454 3.0236 10.061 3.47968 9.98946C6.58222 9.50264 9.76193 9.25 13 9.25C16.2381 9.25 19.4178 9.50264 22.5203 9.98946C22.9764 10.061 23.3125 10.454 23.3125 10.9156ZM13.9375 13.9375C13.9375 13.4197 13.5178 13 13 13C12.4822 13 12.0625 13.4197 12.0625 13.9375V22.375C12.0625 22.8928 12.4822 23.3125 13 23.3125C13.5178 23.3125 13.9375 22.8928 13.9375 22.375V13.9375ZM17.6875 13C18.2053 13 18.625 13.4197 18.625 13.9375V22.375C18.625 22.8928 18.2053 23.3125 17.6875 23.3125C17.1697 23.3125 16.75 22.8928 16.75 22.375V13.9375C16.75 13.4197 17.1697 13 17.6875 13ZM9.25 13.9375C9.25 13.4197 8.83027 13 8.3125 13C7.79473 13 7.375 13.4197 7.375 13.9375V22.375C7.375 22.8928 7.79473 23.3125 8.3125 23.3125C8.83027 23.3125 9.25 22.8928 9.25 22.375V13.9375Z" fill="#CAFF33"/>
<path d="M13 7.84375C13.7767 7.84375 14.4062 7.21415 14.4062 6.4375C14.4062 5.66085 13.7767 5.03125 13 5.03125C12.2233 5.03125 11.5938 5.66085 11.5938 6.4375C11.5938 7.21415 12.2233 7.84375 13 7.84375Z" fill="#CAFF33"/>
</svg>
