<svg width="28" height="28" viewBox="0 0 28 28" fill="none" xmlns="http://www.w3.org/2000/svg">
<path fill-rule="evenodd" clip-rule="evenodd" d="M7.625 4.4375C7.625 2.09029 9.52779 0.1875 11.875 0.1875H16.125C18.4722 0.1875 20.375 2.09029 20.375 4.4375V4.72788C21.696 4.84881 23.0063 5.00695 24.3049 5.20125C26.3648 5.50946 27.8125 7.30148 27.8125 9.33306V13.6301C27.8125 15.3459 26.7732 16.9626 25.0694 17.529C21.5885 18.6863 17.8663 19.3125 14.0001 19.3125C10.1337 19.3125 6.41151 18.6863 2.93055 17.529C1.22682 16.9626 0.1875 15.3458 0.1875 13.6301V9.33306C0.1875 7.30148 1.6352 5.50947 3.69511 5.20125C4.99369 5.00695 6.30401 4.84881 7.625 4.72789V4.4375ZM18.25 4.4375V4.56617C16.8442 4.4808 15.4271 4.4375 14 4.4375C12.5729 4.4375 11.1558 4.4808 9.75 4.56617V4.4375C9.75 3.2639 10.7014 2.3125 11.875 2.3125H16.125C17.2986 2.3125 18.25 3.2639 18.25 4.4375ZM14 16.125C14.5868 16.125 15.0625 15.6493 15.0625 15.0625C15.0625 14.4757 14.5868 14 14 14C13.4132 14 12.9375 14.4757 12.9375 15.0625C12.9375 15.6493 13.4132 16.125 14 16.125Z" fill="#CAFF33"/>
<path d="M1.25 23.0666V19.1056C1.56597 19.2789 1.90304 19.4268 2.26013 19.5455C5.95457 20.7738 9.90301 21.4375 14.0001 21.4375C18.097 21.4375 22.0454 20.7738 25.7398 19.5455C26.0969 19.4268 26.434 19.2789 26.75 19.1056V23.0666C26.75 25.1235 25.2664 26.9306 23.1756 27.2082C20.1732 27.6068 17.1103 27.8125 14 27.8125C10.8897 27.8125 7.82682 27.6068 4.82444 27.2082C2.73359 26.9306 1.25 25.1235 1.25 23.0666Z" fill="#CAFF33"/>
</svg>
