<svg width="30" height="30" viewBox="0 0 30 30" fill="none" xmlns="http://www.w3.org/2000/svg">
<path d="M14.4963 0.251999C14.8107 0.0826669 15.1893 0.0826669 15.5037 0.251999L29.3162 7.6895C29.6604 7.87481 29.875 8.23413 29.875 8.625C29.875 9.01588 29.6604 9.37519 29.3162 9.5605L15.5037 16.998C15.1893 17.1673 14.8107 17.1673 14.4963 16.998L0.683769 9.5605C0.339615 9.37519 0.125 9.01588 0.125 8.625C0.125 8.23413 0.339615 7.87481 0.683769 7.6895L14.4963 0.251999Z" fill="#CAFF33"/>
<path d="M2.62496 13.0192L13.4888 18.869C14.4322 19.377 15.5678 19.377 16.5112 18.869L27.375 13.0192L29.3162 14.0645C29.6604 14.2498 29.875 14.6091 29.875 15C29.875 15.3909 29.6604 15.7502 29.3162 15.9355L15.5037 23.373C15.1893 23.5423 14.8107 23.5423 14.4963 23.373L0.683769 15.9355C0.339615 15.7502 0.125 15.3909 0.125 15C0.125 14.6091 0.339615 14.2498 0.683769 14.0645L2.62496 13.0192Z" fill="#CAFF33"/>
<path d="M13.4888 25.244L2.62496 19.3942L0.683769 20.4395C0.339615 20.6248 0.125 20.9841 0.125 21.375C0.125 21.7659 0.339615 22.1252 0.683769 22.3105L14.4963 29.748C14.8107 29.9173 15.1893 29.9173 15.5037 29.748L29.3162 22.3105C29.6604 22.1252 29.875 21.7659 29.875 21.375C29.875 20.9841 29.6604 20.6248 29.3162 20.4395L27.375 19.3942L16.5112 25.244C15.5678 25.752 14.4322 25.752 13.4888 25.244Z" fill="#CAFF33"/>
</svg>
