<svg width="28" height="28" viewBox="0 0 28 28" fill="none" xmlns="http://www.w3.org/2000/svg">
<path fill-rule="evenodd" clip-rule="evenodd" d="M14 0.1875C6.37157 0.1875 0.1875 6.37157 0.1875 14C0.1875 21.6284 6.37157 27.8125 14 27.8125C21.6284 27.8125 27.8125 21.6284 27.8125 14C27.8125 6.37157 21.6284 0.1875 14 0.1875ZM9.75 7.625C9.1632 7.625 8.6875 8.1007 8.6875 8.6875C8.6875 9.2743 9.1632 9.75 9.75 9.75H11.875C13.2629 9.75 14.4435 10.637 14.8811 11.875H9.75C9.1632 11.875 8.6875 12.3507 8.6875 12.9375C8.6875 13.5243 9.1632 14 9.75 14H14.8811C14.4435 15.238 13.2629 16.125 11.875 16.125H9.75C9.32026 16.125 8.93283 16.3839 8.76838 16.7809C8.60392 17.1779 8.69483 17.6349 8.9987 17.9388L13.2487 22.1888C13.6636 22.6037 14.3364 22.6037 14.7513 22.1888C15.1662 21.7739 15.1662 21.1011 14.7513 20.6862L12.2985 18.2334C14.6779 18.0457 16.6163 16.2904 17.0812 14H18.25C18.8368 14 19.3125 13.5243 19.3125 12.9375C19.3125 12.3507 18.8368 11.875 18.25 11.875H17.0812C16.9219 11.0899 16.5894 10.3677 16.1254 9.75H18.25C18.8368 9.75 19.3125 9.2743 19.3125 8.6875C19.3125 8.1007 18.8368 7.625 18.25 7.625H9.75Z" fill="#CAFF33"/>
</svg>
