<svg width="26" height="23" viewBox="0 0 26 23" fill="none" xmlns="http://www.w3.org/2000/svg">
<path d="M12.0625 2.66608C10.1682 1.45349 7.91558 0.75 5.5 0.75C4.07722 0.75 2.70945 0.994193 1.43758 1.44373C1.06296 1.57614 0.8125 1.93032 0.8125 2.32765V20.1401C0.8125 20.4445 0.960223 20.7299 1.2087 20.9056C1.45717 21.0813 1.77548 21.1255 2.06242 21.0241C3.13639 20.6445 4.29301 20.4375 5.5 20.4375C7.99377 20.4375 10.2791 21.3216 12.0625 22.7946V2.66608Z" fill="#CAFF33"/>
<path d="M13.9375 22.7946C15.7209 21.3216 18.0062 20.4375 20.5 20.4375C21.707 20.4375 22.8636 20.6445 23.9376 21.0241C24.2245 21.1255 24.5428 21.0813 24.7913 20.9056C25.0398 20.7299 25.1875 20.4445 25.1875 20.1401V2.32765C25.1875 1.93032 24.937 1.57614 24.5624 1.44373C23.2906 0.994193 21.9228 0.75 20.5 0.75C18.0844 0.75 15.8318 1.45349 13.9375 2.66608V22.7946Z" fill="#CAFF33"/>
</svg>
