<svg width="28" height="26" viewBox="0 0 28 26" fill="none" xmlns="http://www.w3.org/2000/svg">
<path fill-rule="evenodd" clip-rule="evenodd" d="M2.75 0.8125C2.23223 0.8125 1.8125 1.23223 1.8125 1.75C1.8125 2.26777 2.23223 2.6875 2.75 2.6875V23.3125H1.8125C1.29473 23.3125 0.875 23.7322 0.875 24.25C0.875 24.7678 1.29473 25.1875 1.8125 25.1875H17.75V2.6875C18.2678 2.6875 18.6875 2.26777 18.6875 1.75C18.6875 1.23223 18.2678 0.8125 17.75 0.8125H2.75ZM7.4375 22.375V19.5625C7.4375 19.0447 7.85723 18.625 8.375 18.625H12.125C12.6428 18.625 13.0625 19.0447 13.0625 19.5625V22.375C13.0625 22.8928 12.6428 23.3125 12.125 23.3125H8.375C7.85723 23.3125 7.4375 22.8928 7.4375 22.375ZM6.5 6.4375C6.5 5.91973 6.91973 5.5 7.4375 5.5H8.375C8.89277 5.5 9.3125 5.91973 9.3125 6.4375C9.3125 6.95527 8.89277 7.375 8.375 7.375H7.4375C6.91973 7.375 6.5 6.95527 6.5 6.4375ZM7.4375 9.25C6.91973 9.25 6.5 9.66973 6.5 10.1875C6.5 10.7053 6.91973 11.125 7.4375 11.125H8.375C8.89277 11.125 9.3125 10.7053 9.3125 10.1875C9.3125 9.66973 8.89277 9.25 8.375 9.25H7.4375ZM6.5 13.9375C6.5 13.4197 6.91973 13 7.4375 13H8.375C8.89277 13 9.3125 13.4197 9.3125 13.9375C9.3125 14.4553 8.89277 14.875 8.375 14.875H7.4375C6.91973 14.875 6.5 14.4553 6.5 13.9375ZM12.125 5.5C11.6072 5.5 11.1875 5.91973 11.1875 6.4375C11.1875 6.95527 11.6072 7.375 12.125 7.375H13.0625C13.5803 7.375 14 6.95527 14 6.4375C14 5.91973 13.5803 5.5 13.0625 5.5H12.125ZM11.1875 10.1875C11.1875 9.66973 11.6072 9.25 12.125 9.25H13.0625C13.5803 9.25 14 9.66973 14 10.1875C14 10.7053 13.5803 11.125 13.0625 11.125H12.125C11.6072 11.125 11.1875 10.7053 11.1875 10.1875ZM12.125 13C11.6072 13 11.1875 13.4197 11.1875 13.9375C11.1875 14.4553 11.6072 14.875 12.125 14.875H13.0625C13.5803 14.875 14 14.4553 14 13.9375C14 13.4197 13.5803 13 13.0625 13H12.125Z" fill="#CAFF33"/>
<path fill-rule="evenodd" clip-rule="evenodd" d="M19.625 6.4375V25.1875H26.1875C26.7053 25.1875 27.125 24.7678 27.125 24.25C27.125 23.7322 26.7053 23.3125 26.1875 23.3125H25.25V8.3125C25.7678 8.3125 26.1875 7.89277 26.1875 7.375C26.1875 6.85723 25.7678 6.4375 25.25 6.4375H19.625ZM21.5 12.0625C21.5 11.5447 21.9197 11.125 22.4375 11.125H22.4469C22.9646 11.125 23.3844 11.5447 23.3844 12.0625V12.0719C23.3844 12.5896 22.9646 13.0094 22.4469 13.0094H22.4375C21.9197 13.0094 21.5 12.5896 21.5 12.0719V12.0625ZM22.4375 14.875C21.9197 14.875 21.5 15.2947 21.5 15.8125V15.8219C21.5 16.3396 21.9197 16.7594 22.4375 16.7594H22.4469C22.9646 16.7594 23.3844 16.3396 23.3844 15.8219V15.8125C23.3844 15.2947 22.9646 14.875 22.4469 14.875H22.4375ZM21.5 19.5625C21.5 19.0447 21.9197 18.625 22.4375 18.625H22.4469C22.9646 18.625 23.3844 19.0447 23.3844 19.5625V19.5719C23.3844 20.0896 22.9646 20.5094 22.4469 20.5094H22.4375C21.9197 20.5094 21.5 20.0896 21.5 19.5719V19.5625Z" fill="#CAFF33"/>
</svg>
