<svg width="30" height="26" viewBox="0 0 30 26" fill="none" xmlns="http://www.w3.org/2000/svg">
<path d="M2.78125 0.25C1.31424 0.25 0.125 1.43924 0.125 2.90625V3.96875C0.125 5.43576 1.31424 6.625 2.78125 6.625H27.2188C28.6858 6.625 29.875 5.43576 29.875 3.96875V2.90625C29.875 1.43924 28.6858 0.25 27.2188 0.25H2.78125Z" fill="#CAFF33"/>
<path fill-rule="evenodd" clip-rule="evenodd" d="M2.37296 8.75L3.13764 21.7496C3.26978 23.996 5.13003 25.75 7.3803 25.75H22.6193C24.8696 25.75 26.7298 23.996 26.8619 21.7496L27.6266 8.75H2.37296ZM15 10.875C15.5868 10.875 16.0625 11.3507 16.0625 11.9375V18.9349L18.4987 16.4987C18.9136 16.0838 19.5864 16.0838 20.0013 16.4987C20.4162 16.9136 20.4162 17.5864 20.0013 18.0013L15.7513 22.2513C15.3364 22.6662 14.6636 22.6662 14.2487 22.2513L9.9987 18.0013C9.58377 17.5864 9.58377 16.9136 9.9987 16.4987C10.4136 16.0838 11.0864 16.0838 11.5013 16.4987L13.9375 18.9349V11.9375C13.9375 11.3507 14.4132 10.875 15 10.875Z" fill="#CAFF33"/>
</svg>
